<mxfile host="Electron" agent="Mozilla/5.0 (Windows NT 10.0; Win64; x64) AppleWebKit/537.36 (KHTML, like Gecko) draw.io/27.0.5 Chrome/134.0.6998.205 Electron/35.3.0 Safari/537.36" version="27.0.5">
  <diagram name="Page-1" id="EQDiC4gNCSPA1Phn-L4d">
    <mxGraphModel dx="2087" dy="1808" grid="1" gridSize="10" guides="1" tooltips="1" connect="1" arrows="1" fold="1" page="1" pageScale="1" pageWidth="850" pageHeight="1100" math="0" shadow="0">
      <root>
        <mxCell id="0" />
        <mxCell id="1" parent="0" />
        <mxCell id="L2Q9viV0ZBkgzftJfQzW-1" value="&lt;font style=&quot;font-size: 14px;&quot;&gt;crm_sales_details&lt;/font&gt;" style="swimlane;fontStyle=0;childLayout=stackLayout;horizontal=1;startSize=30;horizontalStack=0;resizeParent=1;resizeParentMax=0;resizeLast=0;collapsible=1;marginBottom=0;whiteSpace=wrap;html=1;glass=0;shadow=0;swimlaneLine=1;fillColor=#1DB7FF;fontColor=#ffffff;strokeColor=#006EAF;" parent="1" vertex="1">
          <mxGeometry x="40" y="110" width="140" height="90" as="geometry" />
        </mxCell>
        <mxCell id="L2Q9viV0ZBkgzftJfQzW-2" value="prd_key" style="text;strokeColor=none;fillColor=none;align=left;verticalAlign=middle;spacingLeft=4;spacingRight=4;overflow=hidden;points=[[0,0.5],[1,0.5]];portConstraint=eastwest;rotatable=0;whiteSpace=wrap;html=1;" parent="L2Q9viV0ZBkgzftJfQzW-1" vertex="1">
          <mxGeometry y="30" width="140" height="30" as="geometry" />
        </mxCell>
        <mxCell id="L2Q9viV0ZBkgzftJfQzW-3" value="cst_id" style="text;strokeColor=none;fillColor=none;align=left;verticalAlign=middle;spacingLeft=4;spacingRight=4;overflow=hidden;points=[[0,0.5],[1,0.5]];portConstraint=eastwest;rotatable=0;whiteSpace=wrap;html=1;" parent="L2Q9viV0ZBkgzftJfQzW-1" vertex="1">
          <mxGeometry y="60" width="140" height="30" as="geometry" />
        </mxCell>
        <mxCell id="L2Q9viV0ZBkgzftJfQzW-5" value="&lt;font style=&quot;font-size: 13px;&quot;&gt;Transactional Records about Sales and Orders&lt;/font&gt;" style="text;html=1;align=center;verticalAlign=middle;whiteSpace=wrap;rounded=0;" parent="1" vertex="1">
          <mxGeometry x="25" y="80" width="170" height="30" as="geometry" />
        </mxCell>
        <mxCell id="L2Q9viV0ZBkgzftJfQzW-6" value="&lt;font style=&quot;font-size: 14px;&quot;&gt;crm_prd_info&lt;/font&gt;" style="swimlane;fontStyle=0;childLayout=stackLayout;horizontal=1;startSize=30;horizontalStack=0;resizeParent=1;resizeParentMax=0;resizeLast=0;collapsible=1;marginBottom=0;whiteSpace=wrap;html=1;glass=0;shadow=0;swimlaneLine=1;fillColor=#1DB7FF;fontColor=#ffffff;strokeColor=#006EAF;" parent="1" vertex="1">
          <mxGeometry x="275" y="30" width="140" height="60" as="geometry" />
        </mxCell>
        <mxCell id="L2Q9viV0ZBkgzftJfQzW-7" value="prd_key" style="text;strokeColor=none;fillColor=none;align=left;verticalAlign=middle;spacingLeft=4;spacingRight=4;overflow=hidden;points=[[0,0.5],[1,0.5]];portConstraint=eastwest;rotatable=0;whiteSpace=wrap;html=1;" parent="L2Q9viV0ZBkgzftJfQzW-6" vertex="1">
          <mxGeometry y="30" width="140" height="30" as="geometry" />
        </mxCell>
        <mxCell id="L2Q9viV0ZBkgzftJfQzW-9" value="&lt;span style=&quot;font-size: 13px;&quot;&gt;Current and History Product Information&lt;/span&gt;" style="text;html=1;align=center;verticalAlign=middle;whiteSpace=wrap;rounded=0;" parent="1" vertex="1">
          <mxGeometry x="260" width="170" height="30" as="geometry" />
        </mxCell>
        <mxCell id="L2Q9viV0ZBkgzftJfQzW-10" value="&lt;font style=&quot;font-size: 14px;&quot;&gt;crm_prd_info&lt;/font&gt;" style="swimlane;fontStyle=0;childLayout=stackLayout;horizontal=1;startSize=30;horizontalStack=0;resizeParent=1;resizeParentMax=0;resizeLast=0;collapsible=1;marginBottom=0;whiteSpace=wrap;html=1;glass=0;shadow=0;swimlaneLine=1;fillColor=#1DB7FF;fontColor=#ffffff;strokeColor=#006EAF;" parent="1" vertex="1">
          <mxGeometry x="270" y="220" width="140" height="90" as="geometry" />
        </mxCell>
        <mxCell id="L2Q9viV0ZBkgzftJfQzW-14" value="cst_id" style="text;strokeColor=none;fillColor=none;align=left;verticalAlign=middle;spacingLeft=4;spacingRight=4;overflow=hidden;points=[[0,0.5],[1,0.5]];portConstraint=eastwest;rotatable=0;whiteSpace=wrap;html=1;" parent="L2Q9viV0ZBkgzftJfQzW-10" vertex="1">
          <mxGeometry y="30" width="140" height="30" as="geometry" />
        </mxCell>
        <mxCell id="L2Q9viV0ZBkgzftJfQzW-11" value="cst_key" style="text;strokeColor=none;fillColor=none;align=left;verticalAlign=middle;spacingLeft=4;spacingRight=4;overflow=hidden;points=[[0,0.5],[1,0.5]];portConstraint=eastwest;rotatable=0;whiteSpace=wrap;html=1;" parent="L2Q9viV0ZBkgzftJfQzW-10" vertex="1">
          <mxGeometry y="60" width="140" height="30" as="geometry" />
        </mxCell>
        <mxCell id="L2Q9viV0ZBkgzftJfQzW-12" value="&lt;span style=&quot;font-size: 13px;&quot;&gt;Customer Information&lt;/span&gt;" style="text;html=1;align=center;verticalAlign=middle;whiteSpace=wrap;rounded=0;" parent="1" vertex="1">
          <mxGeometry x="255" y="190" width="170" height="30" as="geometry" />
        </mxCell>
        <mxCell id="L2Q9viV0ZBkgzftJfQzW-17" style="edgeStyle=orthogonalEdgeStyle;rounded=0;orthogonalLoop=1;jettySize=auto;html=1;entryX=0.006;entryY=0.727;entryDx=0;entryDy=0;entryPerimeter=0;" parent="1" source="L2Q9viV0ZBkgzftJfQzW-2" target="L2Q9viV0ZBkgzftJfQzW-7" edge="1">
          <mxGeometry relative="1" as="geometry" />
        </mxCell>
        <mxCell id="L2Q9viV0ZBkgzftJfQzW-18" style="edgeStyle=orthogonalEdgeStyle;rounded=0;orthogonalLoop=1;jettySize=auto;html=1;entryX=0;entryY=0.5;entryDx=0;entryDy=0;" parent="1" source="L2Q9viV0ZBkgzftJfQzW-3" target="L2Q9viV0ZBkgzftJfQzW-14" edge="1">
          <mxGeometry relative="1" as="geometry" />
        </mxCell>
        <mxCell id="L2Q9viV0ZBkgzftJfQzW-19" value="" style="rounded=1;whiteSpace=wrap;html=1;fillColor=none;" parent="1" vertex="1">
          <mxGeometry x="-10" y="-70" width="490" height="460" as="geometry" />
        </mxCell>
        <mxCell id="L2Q9viV0ZBkgzftJfQzW-20" value="&lt;b&gt;&lt;font style=&quot;font-size: 40px;&quot;&gt;CRM&lt;/font&gt;&lt;/b&gt;" style="rounded=0;whiteSpace=wrap;html=1;fillColor=#1EB7FF;fontColor=#ffffff;strokeColor=#006EAF;" parent="1" vertex="1">
          <mxGeometry x="155" y="-110" width="120" height="80" as="geometry" />
        </mxCell>
        <mxCell id="L2Q9viV0ZBkgzftJfQzW-21" value="&lt;font style=&quot;font-size: 40px;&quot;&gt;Integration Model&lt;/font&gt;" style="text;html=1;align=center;verticalAlign=middle;whiteSpace=wrap;rounded=0;" parent="1" vertex="1">
          <mxGeometry x="335" y="-210" width="390" height="30" as="geometry" />
        </mxCell>
        <mxCell id="L2Q9viV0ZBkgzftJfQzW-22" value="&lt;span style=&quot;font-size: 14px;&quot;&gt;erp_px_cat_g1v2&lt;/span&gt;" style="swimlane;fontStyle=0;childLayout=stackLayout;horizontal=1;startSize=30;horizontalStack=0;resizeParent=1;resizeParentMax=0;resizeLast=0;collapsible=1;marginBottom=0;whiteSpace=wrap;html=1;glass=0;shadow=0;swimlaneLine=1;fillColor=#FFD966;fontColor=#ffffff;strokeColor=#006EAF;" parent="1" vertex="1">
          <mxGeometry x="725" y="30" width="140" height="60" as="geometry" />
        </mxCell>
        <mxCell id="L2Q9viV0ZBkgzftJfQzW-23" value="id" style="text;strokeColor=none;fillColor=none;align=left;verticalAlign=middle;spacingLeft=4;spacingRight=4;overflow=hidden;points=[[0,0.5],[1,0.5]];portConstraint=eastwest;rotatable=0;whiteSpace=wrap;html=1;" parent="L2Q9viV0ZBkgzftJfQzW-22" vertex="1">
          <mxGeometry y="30" width="140" height="30" as="geometry" />
        </mxCell>
        <mxCell id="L2Q9viV0ZBkgzftJfQzW-24" value="&lt;span style=&quot;font-size: 13px;&quot;&gt;Product Categories&lt;/span&gt;" style="text;html=1;align=center;verticalAlign=middle;whiteSpace=wrap;rounded=0;" parent="1" vertex="1">
          <mxGeometry x="710" width="170" height="30" as="geometry" />
        </mxCell>
        <mxCell id="L2Q9viV0ZBkgzftJfQzW-25" value="&lt;span style=&quot;font-size: 14px;&quot;&gt;erp_px_cat_g1v2&lt;/span&gt;" style="swimlane;fontStyle=0;childLayout=stackLayout;horizontal=1;startSize=30;horizontalStack=0;resizeParent=1;resizeParentMax=0;resizeLast=0;collapsible=1;marginBottom=0;whiteSpace=wrap;html=1;glass=0;shadow=0;swimlaneLine=1;fillColor=#FFD966;fontColor=#ffffff;strokeColor=#006EAF;" parent="1" vertex="1">
          <mxGeometry x="725" y="150" width="140" height="60" as="geometry" />
        </mxCell>
        <mxCell id="L2Q9viV0ZBkgzftJfQzW-26" value="cid" style="text;strokeColor=none;fillColor=none;align=left;verticalAlign=middle;spacingLeft=4;spacingRight=4;overflow=hidden;points=[[0,0.5],[1,0.5]];portConstraint=eastwest;rotatable=0;whiteSpace=wrap;html=1;" parent="L2Q9viV0ZBkgzftJfQzW-25" vertex="1">
          <mxGeometry y="30" width="140" height="30" as="geometry" />
        </mxCell>
        <mxCell id="L2Q9viV0ZBkgzftJfQzW-27" value="&lt;span style=&quot;font-size: 13px;&quot;&gt;Extra customer information(BirthDate)&lt;/span&gt;" style="text;html=1;align=center;verticalAlign=middle;whiteSpace=wrap;rounded=0;" parent="1" vertex="1">
          <mxGeometry x="680" y="120" width="250" height="30" as="geometry" />
        </mxCell>
        <mxCell id="L2Q9viV0ZBkgzftJfQzW-28" value="&lt;span style=&quot;font-size: 14px;&quot;&gt;erp_px_cat_g1v2&lt;/span&gt;" style="swimlane;fontStyle=0;childLayout=stackLayout;horizontal=1;startSize=30;horizontalStack=0;resizeParent=1;resizeParentMax=0;resizeLast=0;collapsible=1;marginBottom=0;whiteSpace=wrap;html=1;glass=0;shadow=0;swimlaneLine=1;fillColor=#FFD966;fontColor=#ffffff;strokeColor=#006EAF;" parent="1" vertex="1">
          <mxGeometry x="725" y="270" width="140" height="60" as="geometry" />
        </mxCell>
        <mxCell id="L2Q9viV0ZBkgzftJfQzW-29" value="cid" style="text;strokeColor=none;fillColor=none;align=left;verticalAlign=middle;spacingLeft=4;spacingRight=4;overflow=hidden;points=[[0,0.5],[1,0.5]];portConstraint=eastwest;rotatable=0;whiteSpace=wrap;html=1;" parent="L2Q9viV0ZBkgzftJfQzW-28" vertex="1">
          <mxGeometry y="30" width="140" height="30" as="geometry" />
        </mxCell>
        <mxCell id="L2Q9viV0ZBkgzftJfQzW-30" value="&lt;span style=&quot;font-size: 13px;&quot;&gt;Location of Customer (Country)&lt;/span&gt;" style="text;html=1;align=center;verticalAlign=middle;whiteSpace=wrap;rounded=0;" parent="1" vertex="1">
          <mxGeometry x="700" y="240" width="190" height="30" as="geometry" />
        </mxCell>
        <mxCell id="L2Q9viV0ZBkgzftJfQzW-31" style="edgeStyle=orthogonalEdgeStyle;rounded=0;orthogonalLoop=1;jettySize=auto;html=1;entryX=1;entryY=0.5;entryDx=0;entryDy=0;" parent="1" source="L2Q9viV0ZBkgzftJfQzW-23" target="L2Q9viV0ZBkgzftJfQzW-7" edge="1">
          <mxGeometry relative="1" as="geometry" />
        </mxCell>
        <mxCell id="L2Q9viV0ZBkgzftJfQzW-32" style="edgeStyle=orthogonalEdgeStyle;rounded=0;orthogonalLoop=1;jettySize=auto;html=1;entryX=1;entryY=0.5;entryDx=0;entryDy=0;" parent="1" source="L2Q9viV0ZBkgzftJfQzW-26" target="L2Q9viV0ZBkgzftJfQzW-14" edge="1">
          <mxGeometry relative="1" as="geometry" />
        </mxCell>
        <mxCell id="L2Q9viV0ZBkgzftJfQzW-33" style="edgeStyle=orthogonalEdgeStyle;rounded=0;orthogonalLoop=1;jettySize=auto;html=1;entryX=1;entryY=0.5;entryDx=0;entryDy=0;" parent="1" source="L2Q9viV0ZBkgzftJfQzW-29" target="L2Q9viV0ZBkgzftJfQzW-14" edge="1">
          <mxGeometry relative="1" as="geometry" />
        </mxCell>
        <mxCell id="L2Q9viV0ZBkgzftJfQzW-34" value="" style="rounded=1;whiteSpace=wrap;html=1;fillColor=none;strokeColor=#FFD966;" parent="1" vertex="1">
          <mxGeometry x="570" y="-70" width="470" height="460" as="geometry" />
        </mxCell>
        <mxCell id="L2Q9viV0ZBkgzftJfQzW-36" value="&lt;span style=&quot;font-size: 40px;&quot;&gt;&lt;b&gt;ERP&lt;/b&gt;&lt;/span&gt;" style="rounded=0;whiteSpace=wrap;html=1;fillColor=#FFD966;fontColor=#ffffff;strokeColor=#FFD966;" parent="1" vertex="1">
          <mxGeometry x="745" y="-110" width="120" height="80" as="geometry" />
        </mxCell>
        <mxCell id="9IfCdttFIRM5CKkl8CIs-1" value="&lt;font style=&quot;font-size: 17px;&quot;&gt;Product&lt;/font&gt;" style="text;html=1;strokeColor=#2D7600;fillColor=#60a917;align=center;verticalAlign=middle;whiteSpace=wrap;overflow=hidden;fontColor=#ffffff;" parent="1" vertex="1">
          <mxGeometry x="275" y="90" width="140" height="20" as="geometry" />
        </mxCell>
        <mxCell id="9IfCdttFIRM5CKkl8CIs-3" value="&lt;font style=&quot;font-size: 17px;&quot;&gt;Product&lt;/font&gt;" style="text;html=1;strokeColor=#2D7600;fillColor=#60a917;align=center;verticalAlign=middle;whiteSpace=wrap;overflow=hidden;fontColor=#ffffff;" parent="1" vertex="1">
          <mxGeometry x="725" y="90" width="140" height="20" as="geometry" />
        </mxCell>
        <mxCell id="9IfCdttFIRM5CKkl8CIs-4" value="&lt;span style=&quot;font-size: 17px;&quot;&gt;Customer&lt;/span&gt;" style="text;html=1;strokeColor=#6F0000;fillColor=#a20025;align=center;verticalAlign=middle;whiteSpace=wrap;overflow=hidden;fontColor=#ffffff;" parent="1" vertex="1">
          <mxGeometry x="270" y="310" width="140" height="20" as="geometry" />
        </mxCell>
        <mxCell id="9IfCdttFIRM5CKkl8CIs-5" value="&lt;span style=&quot;font-size: 17px;&quot;&gt;Customer&lt;/span&gt;" style="text;html=1;strokeColor=#6F0000;fillColor=#a20025;align=center;verticalAlign=middle;whiteSpace=wrap;overflow=hidden;fontColor=#ffffff;" parent="1" vertex="1">
          <mxGeometry x="725" y="330" width="140" height="20" as="geometry" />
        </mxCell>
        <mxCell id="9IfCdttFIRM5CKkl8CIs-6" value="&lt;span style=&quot;font-size: 17px;&quot;&gt;Customer&lt;/span&gt;" style="text;html=1;strokeColor=#6F0000;fillColor=#a20025;align=center;verticalAlign=middle;whiteSpace=wrap;overflow=hidden;fontColor=#ffffff;" parent="1" vertex="1">
          <mxGeometry x="725" y="210" width="140" height="20" as="geometry" />
        </mxCell>
        <mxCell id="9IfCdttFIRM5CKkl8CIs-7" value="&lt;span style=&quot;font-size: 17px;&quot;&gt;Sales&lt;/span&gt;" style="text;html=1;strokeColor=#B09500;fillColor=#e3c800;align=center;verticalAlign=middle;whiteSpace=wrap;overflow=hidden;fontColor=#000000;" parent="1" vertex="1">
          <mxGeometry x="40" y="200" width="140" height="20" as="geometry" />
        </mxCell>
      </root>
    </mxGraphModel>
  </diagram>
</mxfile>
